<mxfile modified="2022-01-11T07:37:31.628Z" host="app.diagrams.net" agent="5.0 (Windows NT 10.0; Win64; x64) AppleWebKit/537.36 (KHTML, like Gecko) Chrome/97.0.4692.71 Safari/537.36" etag="hl7pFdQNdm0RQBm3UxMr" version="16.2.4" type="github">
  <diagram id="Ht1M8jgEwFfnCIfOTk4-" name="Page-1">
    <mxGraphModel dx="2207" dy="539" grid="1" gridSize="10" guides="1" tooltips="1" connect="1" arrows="1" fold="1" page="1" pageScale="1" pageWidth="1169" pageHeight="827" math="0" shadow="0">
      <root>
        <mxCell id="0" />
        <mxCell id="1" parent="0" />
        <mxCell id="UEzPUAAOIrF-is8g5C7q-124" style="edgeStyle=orthogonalEdgeStyle;rounded=1;orthogonalLoop=1;jettySize=auto;html=1;startArrow=open;startFill=0;endArrow=open;endFill=0;strokeWidth=2;strokeColor=#808080;" parent="1" target="UEzPUAAOIrF-is8g5C7q-111" edge="1">
          <mxGeometry relative="1" as="geometry">
            <Array as="points">
              <mxPoint x="300.5" y="241.5" />
              <mxPoint x="300.5" y="101.5" />
            </Array>
            <mxPoint x="260.28492941277955" y="241.5" as="sourcePoint" />
          </mxGeometry>
        </mxCell>
        <mxCell id="UEzPUAAOIrF-is8g5C7q-127" style="edgeStyle=orthogonalEdgeStyle;rounded=1;orthogonalLoop=1;jettySize=auto;html=1;startArrow=open;startFill=0;endArrow=open;endFill=0;strokeWidth=2;strokeColor=#808080;" parent="1" target="UEzPUAAOIrF-is8g5C7q-114" edge="1">
          <mxGeometry relative="1" as="geometry">
            <Array as="points">
              <mxPoint x="311.5" y="281.5" />
              <mxPoint x="311.5" y="361.5" />
            </Array>
            <mxPoint x="260.28492941277955" y="281.5" as="sourcePoint" />
          </mxGeometry>
        </mxCell>
        <mxCell id="UEzPUAAOIrF-is8g5C7q-125" style="edgeStyle=orthogonalEdgeStyle;rounded=1;orthogonalLoop=1;jettySize=auto;html=1;startArrow=open;startFill=0;endArrow=open;endFill=0;strokeWidth=2;strokeColor=#808080;" parent="1" source="UEzPUAAOIrF-is8g5C7q-111" target="UEzPUAAOIrF-is8g5C7q-112" edge="1">
          <mxGeometry relative="1" as="geometry">
            <Array as="points">
              <mxPoint x="530.5" y="101.5" />
              <mxPoint x="530.5" y="101.5" />
            </Array>
          </mxGeometry>
        </mxCell>
        <mxCell id="UEzPUAAOIrF-is8g5C7q-126" style="edgeStyle=orthogonalEdgeStyle;rounded=1;orthogonalLoop=1;jettySize=auto;html=1;startArrow=open;startFill=0;endArrow=open;endFill=0;strokeWidth=2;strokeColor=#808080;" parent="1" source="UEzPUAAOIrF-is8g5C7q-113" target="UEzPUAAOIrF-is8g5C7q-114" edge="1">
          <mxGeometry relative="1" as="geometry" />
        </mxCell>
        <mxCell id="UEzPUAAOIrF-is8g5C7q-129" style="edgeStyle=orthogonalEdgeStyle;rounded=1;orthogonalLoop=1;jettySize=auto;html=1;startArrow=open;startFill=0;endArrow=open;endFill=0;strokeWidth=2;strokeColor=#808080;" parent="1" source="UEzPUAAOIrF-is8g5C7q-114" target="UEzPUAAOIrF-is8g5C7q-115" edge="1">
          <mxGeometry relative="1" as="geometry">
            <Array as="points">
              <mxPoint x="510.5" y="391.5" />
              <mxPoint x="510.5" y="391.5" />
            </Array>
          </mxGeometry>
        </mxCell>
        <mxCell id="UEzPUAAOIrF-is8g5C7q-132" style="edgeStyle=orthogonalEdgeStyle;rounded=1;orthogonalLoop=1;jettySize=auto;html=1;startArrow=open;startFill=0;endArrow=open;endFill=0;strokeWidth=2;strokeColor=#808080;" parent="1" source="UEzPUAAOIrF-is8g5C7q-115" edge="1">
          <mxGeometry relative="1" as="geometry">
            <Array as="points">
              <mxPoint x="760" y="372" />
              <mxPoint x="760" y="280" />
            </Array>
            <mxPoint x="800.5000000000002" y="280" as="targetPoint" />
          </mxGeometry>
        </mxCell>
        <mxCell id="UEzPUAAOIrF-is8g5C7q-133" style="edgeStyle=orthogonalEdgeStyle;rounded=1;orthogonalLoop=1;jettySize=auto;html=1;startArrow=open;startFill=0;endArrow=open;endFill=0;strokeWidth=2;strokeColor=#808080;" parent="1" source="UEzPUAAOIrF-is8g5C7q-115" edge="1">
          <mxGeometry relative="1" as="geometry">
            <Array as="points">
              <mxPoint x="760.5" y="381.5" />
              <mxPoint x="760.5" y="415.5" />
            </Array>
            <mxPoint x="800.5000000000002" y="415.5" as="targetPoint" />
          </mxGeometry>
        </mxCell>
        <mxCell id="UEzPUAAOIrF-is8g5C7q-134" style="edgeStyle=orthogonalEdgeStyle;rounded=1;orthogonalLoop=1;jettySize=auto;html=1;startArrow=open;startFill=0;endArrow=open;endFill=0;strokeWidth=2;strokeColor=#808080;" parent="1" source="UEzPUAAOIrF-is8g5C7q-115" edge="1">
          <mxGeometry relative="1" as="geometry">
            <Array as="points">
              <mxPoint x="740.5" y="391.5" />
              <mxPoint x="740.5" y="530.5" />
            </Array>
            <mxPoint x="800.5000000000002" y="530.5" as="targetPoint" />
          </mxGeometry>
        </mxCell>
        <mxCell id="UEzPUAAOIrF-is8g5C7q-139" style="edgeStyle=orthogonalEdgeStyle;rounded=1;orthogonalLoop=1;jettySize=auto;html=1;startArrow=open;startFill=0;endArrow=open;endFill=0;strokeWidth=2;strokeColor=#808080;" parent="1" target="UEzPUAAOIrF-is8g5C7q-111" edge="1">
          <mxGeometry relative="1" as="geometry">
            <mxPoint x="260.28492941277955" y="262" as="sourcePoint" />
            <mxPoint x="422.5" y="124.02941176470586" as="targetPoint" />
            <Array as="points">
              <mxPoint x="311.5" y="261.5" />
              <mxPoint x="311.5" y="121.5" />
            </Array>
          </mxGeometry>
        </mxCell>
        <mxCell id="UEzPUAAOIrF-is8g5C7q-141" style="edgeStyle=orthogonalEdgeStyle;rounded=1;orthogonalLoop=1;jettySize=auto;html=1;startArrow=open;startFill=0;endArrow=open;endFill=0;strokeWidth=2;strokeColor=#808080;" parent="1" source="UEzPUAAOIrF-is8g5C7q-113" target="UEzPUAAOIrF-is8g5C7q-114" edge="1">
          <mxGeometry relative="1" as="geometry">
            <mxPoint x="500.5" y="260.22413793103453" as="sourcePoint" />
            <mxPoint x="418.4655172413793" y="347.5" as="targetPoint" />
            <Array as="points">
              <mxPoint x="529.5" y="351.5" />
            </Array>
          </mxGeometry>
        </mxCell>
        <mxCell id="UEzPUAAOIrF-is8g5C7q-142" style="edgeStyle=orthogonalEdgeStyle;rounded=1;orthogonalLoop=1;jettySize=auto;html=1;startArrow=open;startFill=0;endArrow=open;endFill=0;strokeWidth=2;strokeColor=#808080;" parent="1" source="UEzPUAAOIrF-is8g5C7q-114" target="UEzPUAAOIrF-is8g5C7q-115" edge="1">
          <mxGeometry relative="1" as="geometry">
            <mxPoint x="457.5" y="386.5" as="sourcePoint" />
            <mxPoint x="590.5" y="386.5" as="targetPoint" />
            <Array as="points">
              <mxPoint x="510.5" y="371.5" />
              <mxPoint x="510.5" y="371.5" />
            </Array>
          </mxGeometry>
        </mxCell>
        <mxCell id="UEzPUAAOIrF-is8g5C7q-143" style="edgeStyle=orthogonalEdgeStyle;rounded=1;orthogonalLoop=1;jettySize=auto;html=1;startArrow=open;startFill=0;endArrow=open;endFill=0;strokeWidth=2;strokeColor=#808080;" parent="1" source="UEzPUAAOIrF-is8g5C7q-111" target="UEzPUAAOIrF-is8g5C7q-112" edge="1">
          <mxGeometry relative="1" as="geometry">
            <mxPoint x="500.5" y="111.5" as="sourcePoint" />
            <mxPoint x="578.5" y="111.5" as="targetPoint" />
            <Array as="points">
              <mxPoint x="530.5" y="121.5" />
              <mxPoint x="530.5" y="121.5" />
            </Array>
          </mxGeometry>
        </mxCell>
        <mxCell id="UEzPUAAOIrF-is8g5C7q-109" value="GS Software" style="outlineConnect=0;gradientColor=none;fontColor=#545B64;strokeColor=none;fillColor=#879196;dashed=0;verticalLabelPosition=bottom;verticalAlign=top;align=center;html=1;fontSize=12;fontStyle=0;aspect=fixed;shape=mxgraph.aws4.illustration_desktop;pointerEvents=1;labelBackgroundColor=#ffffff;rounded=1;" parent="1" vertex="1">
          <mxGeometry x="151" y="223.5" width="100" height="91" as="geometry" />
        </mxCell>
        <mxCell id="UEzPUAAOIrF-is8g5C7q-111" value="Amazon &lt;br&gt;Cognito" style="outlineConnect=0;fontColor=#232F3E;gradientColor=#F54749;gradientDirection=north;fillColor=#C7131F;strokeColor=#ffffff;dashed=0;verticalLabelPosition=bottom;verticalAlign=top;align=center;html=1;fontSize=12;fontStyle=0;aspect=fixed;shape=mxgraph.aws4.resourceIcon;resIcon=mxgraph.aws4.cognito;labelBackgroundColor=#ffffff;rounded=1;" parent="1" vertex="1">
          <mxGeometry x="412.5" y="74.5" width="78" height="78" as="geometry" />
        </mxCell>
        <mxCell id="UEzPUAAOIrF-is8g5C7q-112" value="Active&lt;br&gt;Directory" style="outlineConnect=0;fontColor=#232F3E;gradientColor=#F54749;gradientDirection=north;fillColor=#C7131F;strokeColor=#ffffff;dashed=0;verticalLabelPosition=bottom;verticalAlign=top;align=center;html=1;fontSize=12;fontStyle=0;aspect=fixed;shape=mxgraph.aws4.resourceIcon;resIcon=mxgraph.aws4.cloud_directory;labelBackgroundColor=#ffffff;rounded=1;" parent="1" vertex="1">
          <mxGeometry x="568.5" y="74.5" width="78" height="78" as="geometry" />
        </mxCell>
        <mxCell id="UEzPUAAOIrF-is8g5C7q-113" value="Lambda" style="outlineConnect=0;fontColor=#232F3E;gradientColor=#F78E04;gradientDirection=north;fillColor=#D05C17;strokeColor=#ffffff;dashed=0;verticalLabelPosition=bottom;verticalAlign=top;align=center;html=1;fontSize=12;fontStyle=0;aspect=fixed;shape=mxgraph.aws4.resourceIcon;resIcon=mxgraph.aws4.lambda;labelBackgroundColor=#ffffff;spacingTop=3;rounded=1;" parent="1" vertex="1">
          <mxGeometry x="490.5" y="211.5" width="78" height="78" as="geometry" />
        </mxCell>
        <mxCell id="UEzPUAAOIrF-is8g5C7q-114" value="Amazon API&lt;br&gt;Gateway&lt;br&gt;" style="outlineConnect=0;fontColor=#232F3E;gradientColor=#945DF2;gradientDirection=north;fillColor=#5A30B5;strokeColor=#ffffff;dashed=0;verticalLabelPosition=bottom;verticalAlign=top;align=center;html=1;fontSize=12;fontStyle=0;aspect=fixed;shape=mxgraph.aws4.resourceIcon;resIcon=mxgraph.aws4.api_gateway;labelBackgroundColor=#ffffff;rounded=1;" parent="1" vertex="1">
          <mxGeometry x="369.5" y="337.5" width="78" height="78" as="geometry" />
        </mxCell>
        <mxCell id="UEzPUAAOIrF-is8g5C7q-115" value="Lambda&lt;br&gt;function" style="outlineConnect=0;fontColor=#232F3E;gradientColor=none;fillColor=#D05C17;strokeColor=none;dashed=0;verticalLabelPosition=bottom;verticalAlign=top;align=center;html=1;fontSize=12;fontStyle=0;aspect=fixed;pointerEvents=1;shape=mxgraph.aws4.lambda_function;labelBackgroundColor=#ffffff;rounded=1;" parent="1" vertex="1">
          <mxGeometry x="580.5" y="337.5" width="78" height="78" as="geometry" />
        </mxCell>
        <mxCell id="UEzPUAAOIrF-is8g5C7q-116" value="Amazon S3" style="outlineConnect=0;fontColor=#232F3E;gradientColor=#60A337;gradientDirection=north;fillColor=#277116;strokeColor=#ffffff;dashed=0;verticalLabelPosition=bottom;verticalAlign=top;align=center;html=1;fontSize=12;fontStyle=0;aspect=fixed;shape=mxgraph.aws4.resourceIcon;resIcon=mxgraph.aws4.s3;labelBackgroundColor=#ffffff;rounded=1;" parent="1" vertex="1">
          <mxGeometry x="820.0000000000002" y="230" width="78" height="78" as="geometry" />
        </mxCell>
        <mxCell id="UEzPUAAOIrF-is8g5C7q-122" value="IAM Roles" style="outlineConnect=0;fontColor=#232F3E;gradientColor=none;fillColor=#C7131F;strokeColor=none;dashed=0;verticalLabelPosition=bottom;verticalAlign=top;align=center;html=1;fontSize=12;fontStyle=0;aspect=fixed;pointerEvents=1;shape=mxgraph.aws4.role;labelBackgroundColor=#ffffff;rounded=1;" parent="1" vertex="1">
          <mxGeometry x="809.0000000000002" y="389" width="78" height="44" as="geometry" />
        </mxCell>
        <mxCell id="KuP4tyIWIWBS189rq3YF-7" value="" style="outlineConnect=0;fontColor=#232F3E;gradientColor=none;fillColor=#2E27AD;strokeColor=none;dashed=0;verticalLabelPosition=bottom;verticalAlign=top;align=center;html=1;fontSize=12;fontStyle=0;aspect=fixed;pointerEvents=1;shape=mxgraph.aws4.rds_mysql_instance;rounded=1;" vertex="1" parent="1">
          <mxGeometry x="800" y="488" width="78" height="78" as="geometry" />
        </mxCell>
        <object label="" placeholders="1" id="KuP4tyIWIWBS189rq3YF-9">
          <mxCell style="points=[[0,0,0],[0.25,0,0],[0.5,0,0],[0.75,0,0],[1,0,0],[0,1,0],[0.25,1,0],[0.5,1,0],[0.75,1,0],[1,1,0],[0,0.25,0],[0,0.5,0],[0,0.75,0],[1,0.25,0],[1,0.5,0],[1,0.75,0]];outlineConnect=0;fontColor=#232F3E;gradientColor=#517DFD;gradientDirection=north;fillColor=#2F29AF;strokeColor=#ffffff;dashed=0;verticalLabelPosition=bottom;verticalAlign=top;align=center;html=1;fontSize=12;fontStyle=0;aspect=fixed;shape=mxgraph.aws4.resourceIcon;resIcon=mxgraph.aws4.ground_station;rounded=1;" vertex="1" parent="1">
            <mxGeometry x="-20" y="230" width="78" height="78" as="geometry" />
          </mxCell>
        </object>
        <mxCell id="KuP4tyIWIWBS189rq3YF-10" value="" style="edgeStyle=orthogonalEdgeStyle;html=1;endArrow=block;elbow=vertical;startArrow=block;startFill=1;endFill=1;strokeColor=#545B64;rounded=1;entryX=-0.01;entryY=0.494;entryDx=0;entryDy=0;entryPerimeter=0;" edge="1" parent="1" target="UEzPUAAOIrF-is8g5C7q-109">
          <mxGeometry width="100" relative="1" as="geometry">
            <mxPoint x="60" y="268" as="sourcePoint" />
            <mxPoint x="48" y="268.5" as="targetPoint" />
          </mxGeometry>
        </mxCell>
      </root>
    </mxGraphModel>
  </diagram>
</mxfile>
